mtllib sms_n.mtl

v  0.000000 22.500000 -0.000000
v  0.000000 22.500000 -0.000000
v  0.000000 22.500000 -0.000000
v  0.000000 20.271630 -9.761380
v  0.000000 20.271630 -9.761380
v  0.000000 14.026809 -17.592385
v  0.000000 14.026809 -17.592385
v  0.000000 5.008653 -21.935018
v  0.000000 5.008653 -21.935018
v  0.000000 -5.008653 -21.935018
v  0.000000 -5.008653 -21.935018
v  0.000000 -14.026809 -17.592385
v  0.000000 -14.026809 -17.592385
v  0.000000 -20.271630 -9.761380
v  0.000000 -20.271630 -9.761380
v  0.000000 -22.500000 0.000000
v  0.000000 -22.500000 0.000000
v  0.000000 -22.500000 0.000000
v  0.000000 -20.271630 9.761380
v  0.000000 -20.271630 9.761380
v  0.000000 -14.026809 17.592385
v  0.000000 -14.026809 17.592385
v  0.000000 -5.008653 21.935018
v  0.000000 -5.008653 21.935018
v  0.000000 5.008653 21.935018
v  0.000000 5.008653 21.935018
v  0.000000 14.026809 17.592385
v  0.000000 14.026809 17.592385
v  0.000000 20.271630 9.761380
v  0.000000 20.271630 9.761380
v  0.000000 -50.000000 50.000000
v  0.000000 -50.000000 50.000000
v  0.000000 -50.000000 50.000000
v  0.000000 -50.000000 -50.000000
v  0.000000 -50.000000 -50.000000
v  0.000000 -50.000000 -50.000000
v  0.000000 50.000000 -50.000000
v  0.000000 50.000000 -50.000000
v  0.000000 50.000000 -50.000000
v  0.000000 50.000000 50.000000
v  0.000000 50.000000 50.000000
v  0.000000 50.000000 50.000000
v  10.000000 22.500000 -0.000000
v  10.000000 22.500000 -0.000000
v  10.000000 22.500000 -0.000000
v  10.000000 20.271630 9.761380
v  10.000000 20.271630 9.761380
v  10.000000 14.026809 17.592385
v  10.000000 14.026809 17.592385
v  10.000000 5.008653 21.935018
v  10.000000 5.008653 21.935018
v  10.000000 -5.008653 21.935018
v  10.000000 -5.008653 21.935018
v  10.000000 -14.026809 17.592385
v  10.000000 -14.026809 17.592385
v  10.000000 -20.271630 9.761380
v  10.000000 -20.271630 9.761380
v  10.000000 -22.500000 0.000000
v  10.000000 -22.500000 0.000000
v  10.000000 -22.500000 0.000000
v  10.000000 -20.271630 -9.761380
v  10.000000 -20.271630 -9.761380
v  10.000000 -14.026809 -17.592385
v  10.000000 -14.026809 -17.592385
v  10.000000 -5.008653 -21.935018
v  10.000000 -5.008653 -21.935018
v  10.000000 5.008653 -21.935018
v  10.000000 5.008653 -21.935018
v  10.000000 14.026809 -17.592385
v  10.000000 14.026809 -17.592385
v  10.000000 20.271630 -9.761380
v  10.000000 20.271630 -9.761380
v  10.000000 -50.000000 50.000000
v  10.000000 -50.000000 50.000000
v  10.000000 -50.000000 50.000000
v  10.000000 50.000000 50.000000
v  10.000000 50.000000 50.000000
v  10.000000 50.000000 50.000000
v  10.000000 50.000000 -35.000000
v  10.000000 50.000000 -35.000000
v  10.000000 50.000000 -35.000000
v  10.000000 -50.000000 -35.000000
v  10.000000 -50.000000 -35.000000
v  10.000000 -50.000000 -35.000000
v  100.000000 -50.000000 -35.000000
v  100.000000 -50.000000 -35.000000
v  100.000000 -50.000000 -35.000000
v  100.000000 -50.000000 -50.000000
v  100.000000 -50.000000 -50.000000
v  100.000000 -50.000000 -50.000000
v  100.000000 50.000000 -50.000000
v  100.000000 50.000000 -50.000000
v  100.000000 50.000000 -50.000000
v  100.000000 50.000000 -35.000000
v  100.000000 50.000000 -35.000000
v  100.000000 50.000000 -35.000000

vt  0.725000 0.500000 0.000000
vt  0.725000 0.500000 0.000000
vt  0.725000 0.500000 0.000000
vt  0.702716 0.402386 0.000000
vt  0.702716 0.402386 0.000000
vt  0.640268 0.324076 0.000000
vt  0.640268 0.324076 0.000000
vt  0.550087 0.280650 0.000000
vt  0.550087 0.280650 0.000000
vt  0.449913 0.280650 0.000000
vt  0.449913 0.280650 0.000000
vt  0.359732 0.324076 0.000000
vt  0.359732 0.324076 0.000000
vt  0.297284 0.402386 0.000000
vt  0.297284 0.402386 0.000000
vt  0.275000 0.500000 0.000000
vt  0.275000 0.500000 0.000000
vt  0.275000 0.500000 0.000000
vt  0.297284 0.597614 0.000000
vt  0.297284 0.597614 0.000000
vt  0.359732 0.675924 0.000000
vt  0.359732 0.675924 0.000000
vt  0.449913 0.719350 0.000000
vt  0.449913 0.719350 0.000000
vt  0.550087 0.719350 0.000000
vt  0.550087 0.719350 0.000000
vt  0.640268 0.675924 0.000000
vt  0.640268 0.675924 0.000000
vt  0.702716 0.597614 0.000000
vt  0.702716 0.597614 0.000000
vt  0.000000 1.000000 0.000000
vt  0.000000 1.000000 0.000000
vt  0.000000 1.000000 0.000000
vt  0.000000 0.000000 0.000000
vt  0.000000 0.000000 0.000000
vt  0.000000 0.000000 0.000000
vt  1.000000 0.000000 0.000000
vt  1.000000 0.000000 0.000000
vt  1.000000 0.000000 0.000000
vt  1.000000 1.000000 0.000000
vt  1.000000 1.000000 0.000000
vt  1.000000 1.000000 0.000000
vt  0.725000 0.500000 0.000000
vt  0.725000 0.500000 0.000000
vt  0.725000 0.500000 0.000000
vt  0.702716 0.597614 0.000000
vt  0.702716 0.597614 0.000000
vt  0.640268 0.675924 0.000000
vt  0.640268 0.675924 0.000000
vt  0.550087 0.719350 0.000000
vt  0.550087 0.719350 0.000000
vt  0.449913 0.719350 0.000000
vt  0.449913 0.719350 0.000000
vt  0.359732 0.675924 0.000000
vt  0.359732 0.675924 0.000000
vt  0.297284 0.597614 0.000000
vt  0.297284 0.597614 0.000000
vt  0.275000 0.500000 0.000000
vt  0.275000 0.500000 0.000000
vt  0.275000 0.500000 0.000000
vt  0.297284 0.402386 0.000000
vt  0.297284 0.402386 0.000000
vt  0.359732 0.324076 0.000000
vt  0.359732 0.324076 0.000000
vt  0.449913 0.280650 0.000000
vt  0.449913 0.280650 0.000000
vt  0.550087 0.280650 0.000000
vt  0.550087 0.280650 0.000000
vt  0.640268 0.324076 0.000000
vt  0.640268 0.324076 0.000000
vt  0.702716 0.402386 0.000000
vt  0.702716 0.402386 0.000000
vt  0.000000 1.000000 0.000000
vt  0.000000 1.000000 0.000000
vt  0.000000 1.000000 0.000000
vt  1.000000 1.000000 0.000000
vt  1.000000 1.000000 0.000000
vt  1.000000 1.000000 0.000000
vt  1.000000 0.150000 0.000000
vt  1.000000 0.150000 0.000000
vt  1.000000 0.150000 0.000000
vt  0.000000 0.150000 0.000000
vt  0.000000 0.150000 0.000000
vt  0.000000 0.150000 0.000000
vt  0.000000 0.150000 0.000000
vt  0.000000 0.150000 0.000000
vt  0.000000 0.150000 0.000000
vt  0.000000 0.000000 0.000000
vt  0.000000 0.000000 0.000000
vt  0.000000 0.000000 0.000000
vt  1.000000 0.000000 0.000000
vt  1.000000 0.000000 0.000000
vt  1.000000 0.000000 0.000000
vt  1.000000 0.150000 0.000000
vt  1.000000 0.150000 0.000000
vt  1.000000 0.150000 0.000000

vn  -1.000000 0.000000 0.000000
vn  0.000000 -1.000000 0.000000
vn  0.000000 -1.000000 0.000000
vn  -1.000000 0.000000 0.000000
vn  0.000000 -0.900969 0.433884
vn  -1.000000 0.000000 0.000000
vn  0.000000 -0.623490 0.781831
vn  -1.000000 0.000000 0.000000
vn  0.000000 -0.222521 0.974928
vn  -1.000000 0.000000 0.000000
vn  0.000000 0.222521 0.974928
vn  -1.000000 0.000000 0.000000
vn  0.000000 0.623490 0.781831
vn  -1.000000 0.000000 0.000000
vn  0.000000 0.900969 0.433884
vn  -1.000000 0.000000 0.000000
vn  0.000000 1.000000 -0.000000
vn  0.000000 1.000000 -0.000000
vn  -1.000000 0.000000 0.000000
vn  0.000000 0.900969 -0.433884
vn  -1.000000 0.000000 0.000000
vn  0.000000 0.623490 -0.781831
vn  -1.000000 0.000000 0.000000
vn  0.000000 0.222521 -0.974928
vn  -1.000000 0.000000 0.000000
vn  0.000000 -0.222521 -0.974928
vn  -1.000000 0.000000 0.000000
vn  0.000000 -0.623490 -0.781831
vn  -1.000000 0.000000 0.000000
vn  0.000000 -0.900969 -0.433884
vn  -1.000000 0.000000 0.000000
vn  0.000000 -1.000000 0.000000
vn  0.000000 0.000000 1.000000
vn  -1.000000 0.000000 0.000000
vn  0.000000 -1.000000 0.000000
vn  0.000000 0.000000 -1.000000
vn  -1.000000 0.000000 0.000000
vn  0.000000 1.000000 0.000000
vn  0.000000 0.000000 -1.000000
vn  -1.000000 0.000000 0.000000
vn  0.000000 1.000000 0.000000
vn  0.000000 0.000000 1.000000
vn  1.000000 0.000000 0.000000
vn  0.000000 -1.000000 0.000000
vn  0.000000 -1.000000 0.000000
vn  1.000000 0.000000 0.000000
vn  0.000000 -0.900969 -0.433884
vn  1.000000 0.000000 0.000000
vn  0.000000 -0.623490 -0.781831
vn  1.000000 0.000000 0.000000
vn  0.000000 -0.222521 -0.974928
vn  1.000000 0.000000 0.000000
vn  0.000000 0.222521 -0.974928
vn  1.000000 0.000000 0.000000
vn  0.000000 0.623490 -0.781831
vn  1.000000 0.000000 0.000000
vn  0.000000 0.900969 -0.433884
vn  1.000000 0.000000 0.000000
vn  0.000000 1.000000 -0.000000
vn  0.000000 1.000000 -0.000000
vn  1.000000 0.000000 0.000000
vn  0.000000 0.900969 0.433884
vn  1.000000 0.000000 0.000000
vn  0.000000 0.623490 0.781831
vn  1.000000 0.000000 0.000000
vn  0.000000 0.222521 0.974928
vn  1.000000 0.000000 0.000000
vn  0.000000 -0.222521 0.974928
vn  1.000000 0.000000 0.000000
vn  0.000000 -0.623490 0.781831
vn  1.000000 0.000000 0.000000
vn  0.000000 -0.900969 0.433884
vn  1.000000 0.000000 0.000000
vn  0.000000 -1.000000 0.000000
vn  0.000000 0.000000 1.000000
vn  1.000000 0.000000 0.000000
vn  0.000000 1.000000 0.000000
vn  0.000000 0.000000 1.000000
vn  1.000000 0.000000 0.000000
vn  0.000000 1.000000 0.000000
vn  0.000000 0.000000 1.000000
vn  1.000000 0.000000 0.000000
vn  0.000000 -1.000000 0.000000
vn  0.000000 0.000000 1.000000
vn  0.000000 -1.000000 0.000000
vn  0.000000 0.000000 1.000000
vn  1.000000 0.000000 0.000000
vn  0.000000 -1.000000 0.000000
vn  0.000000 0.000000 -1.000000
vn  1.000000 0.000000 0.000000
vn  0.000000 1.000000 0.000000
vn  0.000000 0.000000 -1.000000
vn  1.000000 0.000000 0.000000
vn  0.000000 1.000000 0.000000
vn  0.000000 0.000000 1.000000
vn  1.000000 0.000000 0.000000


g 0
g 1
usemtl DEFAULT_MTL
f 37/37/37  4/4/4  1/1/1
f 44/44/44  2/2/2  5/5/5
f 37/37/37  1/1/1  29/29/29
f 47/47/47  30/30/30  3/3/3
f 47/47/47  3/3/3  45/45/45
f 37/37/37  6/6/6  4/4/4
f 72/72/72  5/5/5  7/7/7
f 72/72/72  44/44/44  5/5/5
f 37/37/37  8/8/8  6/6/6
f 70/70/70  7/7/7  9/9/9
f 72/72/72  7/7/7  70/70/70
f 37/37/37  10/10/10  8/8/8
f 68/68/68  9/9/9  11/11/11
f 70/70/70  9/9/9  68/68/68
f 37/37/37  12/12/12  10/10/10
f 66/66/66  11/11/11  13/13/13
f 68/68/68  11/11/11  66/66/66
f 34/34/34  14/14/14  12/12/12
f 64/64/64  13/13/13  15/15/15
f 37/37/37  34/34/34  12/12/12
f 66/66/66  13/13/13  64/64/64
f 31/31/31  16/16/16  14/14/14
f 62/62/62  15/15/15  17/17/17
f 34/34/34  31/31/31  14/14/14
f 64/64/64  15/15/15  62/62/62
f 31/31/31  19/19/19  16/16/16
f 60/60/60  18/18/18  20/20/20
f 62/62/62  17/17/17  59/59/59
f 31/31/31  21/21/21  19/19/19
f 57/57/57  20/20/20  22/22/22
f 60/60/60  20/20/20  57/57/57
f 31/31/31  23/23/23  21/21/21
f 55/55/55  22/22/22  24/24/24
f 57/57/57  22/22/22  55/55/55
f 31/31/31  25/25/25  23/23/23
f 53/53/53  24/24/24  26/26/26
f 55/55/55  24/24/24  53/53/53
f 31/31/31  27/27/27  25/25/25
f 51/51/51  26/26/26  28/28/28
f 53/53/53  26/26/26  51/51/51
f 40/40/40  29/29/29  27/27/27
f 49/49/49  28/28/28  30/30/30
f 40/40/40  27/27/27  31/31/31
f 51/51/51  28/28/28  49/49/49
f 40/40/40  37/37/37  29/29/29
f 49/49/49  30/30/30  47/47/47
f 83/83/83  32/32/32  35/35/35
f 78/78/78  42/42/42  33/33/33
f 78/78/78  33/33/33  75/75/75
f 83/83/83  74/74/74  32/32/32
f 92/92/92  36/36/36  39/39/39
f 88/88/88  83/83/83  35/35/35
f 92/92/92  89/89/89  36/36/36
f 77/77/77  38/38/38  41/41/41
f 80/80/80  38/38/38  77/77/77
f 94/94/94  38/38/38  80/80/80
f 94/94/94  91/91/91  38/38/38
f 79/79/79  46/46/46  43/43/43
f 79/79/79  43/43/43  71/71/71
f 76/76/76  48/48/48  46/46/46
f 79/79/79  76/76/76  46/46/46
f 73/73/73  50/50/50  48/48/48
f 76/76/76  73/73/73  48/48/48
f 73/73/73  52/52/52  50/50/50
f 73/73/73  54/54/54  52/52/52
f 73/73/73  56/56/56  54/54/54
f 73/73/73  58/58/58  56/56/56
f 73/73/73  61/61/61  58/58/58
f 82/82/82  63/63/63  61/61/61
f 82/82/82  61/61/61  73/73/73
f 82/82/82  65/65/65  63/63/63
f 79/79/79  67/67/67  65/65/65
f 82/82/82  79/79/79  65/65/65
f 79/79/79  69/69/69  67/67/67
f 79/79/79  71/71/71  69/69/69
f 95/95/95  81/81/81  84/84/84
f 88/88/88  85/85/85  83/83/83
f 95/95/95  84/84/84  86/86/86
f 93/93/93  87/87/87  90/90/90
f 96/96/96  87/87/87  93/93/93
